<svg width="162" height="30" viewBox="0 0 162 30" fill="none" xmlns="http://www.w3.org/2000/svg">
<path d="M12.7462 15L8.49842 3.21545L0 26.7845H8.48967L9.81462 23.1336L12.7462 15Z" fill="#0E0E0E"/>
<path d="M12.0685 23.1337L10.7508 26.7845H19.2492L15.0088 15.0233L12.0685 23.1337Z" fill="#0E0E0E"/>
<path d="M21.5016 3.21545L17.2538 15L17.2611 15.0233L17.2699 15L21.5439 26.7845H30L21.5016 3.21545Z" fill="#0E0E0E"/>
<path d="M41.4382 8.90909H43.8352L48.0028 19.0852H48.1562L52.3239 8.90909H54.7209V22H52.8416V12.527H52.7202L48.8594 21.9808H47.2997L43.4389 12.5206H43.3175V22H41.4382V8.90909ZM57.5925 22V8.90909H65.7999V10.6094H59.5676V14.598H65.3716V16.2919H59.5676V20.2997H65.8766V22H57.5925ZM79.3111 13.1662H77.3168C77.2401 12.7401 77.0973 12.3651 76.8885 12.0412C76.6797 11.7173 76.424 11.4425 76.1214 11.2166C75.8189 10.9908 75.4801 10.8203 75.1051 10.7053C74.7344 10.5902 74.3402 10.5327 73.9226 10.5327C73.1683 10.5327 72.4929 10.7223 71.8963 11.1016C71.304 11.4808 70.8352 12.0369 70.4901 12.7699C70.1491 13.5028 69.9787 14.3977 69.9787 15.4545C69.9787 16.5199 70.1491 17.419 70.4901 18.152C70.8352 18.8849 71.3061 19.4389 71.9027 19.8139C72.4993 20.1889 73.1705 20.3764 73.9162 20.3764C74.3295 20.3764 74.7216 20.321 75.0923 20.2102C75.4673 20.0952 75.8061 19.9268 76.1087 19.7053C76.4112 19.4837 76.6669 19.2131 76.8757 18.8935C77.0888 18.5696 77.2358 18.1989 77.3168 17.7812L79.3111 17.7876C79.2045 18.4311 78.9979 19.0234 78.6911 19.5646C78.3885 20.1016 77.9986 20.5661 77.5213 20.9581C77.0483 21.3459 76.5071 21.6463 75.8977 21.8594C75.2884 22.0724 74.6236 22.179 73.9034 22.179C72.7699 22.179 71.7599 21.9105 70.8736 21.3736C69.9872 20.8324 69.2884 20.0589 68.777 19.0533C68.2699 18.0476 68.0163 16.848 68.0163 15.4545C68.0163 14.0568 68.272 12.8572 68.7834 11.8558C69.2947 10.8501 69.9936 10.0788 70.88 9.5419C71.7663 9.00071 72.7741 8.73011 73.9034 8.73011C74.598 8.73011 75.2457 8.83026 75.8466 9.03054C76.4517 9.22656 76.995 9.51633 77.4766 9.89986C77.9581 10.2791 78.3565 10.7436 78.6719 11.2933C78.9872 11.8388 79.2003 12.4631 79.3111 13.1662ZM81.6745 22V8.90909H83.6497V14.598H90.176V8.90909H92.1575V22H90.176V16.2919H83.6497V22H81.6745ZM96.1397 22H94.0431L98.7541 8.90909H101.036L105.747 22H103.65L99.9494 11.2869H99.8471L96.1397 22ZM96.4913 16.8736H103.292V18.5355H96.4913V16.8736ZM118.203 8.90909V22H116.388L109.734 12.3991H109.613V22H107.637V8.90909H109.466L116.126 18.5227H116.248V8.90909H118.203ZM123.06 8.90909V22H121.085V8.90909H123.06ZM125.936 22V8.90909H127.911V15.1605H128.071L133.562 8.90909H136.048L130.769 14.8026L136.068 22H133.69L129.458 16.1513L127.911 17.9283V22H125.936ZM148.61 15.4545C148.61 16.8523 148.355 18.054 147.843 19.0597C147.332 20.0611 146.631 20.8324 145.74 21.3736C144.854 21.9105 143.846 22.179 142.717 22.179C141.583 22.179 140.571 21.9105 139.681 21.3736C138.794 20.8324 138.096 20.0589 137.584 19.0533C137.073 18.0476 136.817 16.848 136.817 15.4545C136.817 14.0568 137.073 12.8572 137.584 11.8558C138.096 10.8501 138.794 10.0788 139.681 9.5419C140.571 9.00071 141.583 8.73011 142.717 8.73011C143.846 8.73011 144.854 9.00071 145.74 9.5419C146.631 10.0788 147.332 10.8501 147.843 11.8558C148.355 12.8572 148.61 14.0568 148.61 15.4545ZM146.654 15.4545C146.654 14.3892 146.482 13.4922 146.137 12.7635C145.796 12.0305 145.327 11.4766 144.73 11.1016C144.138 10.7223 143.467 10.5327 142.717 10.5327C141.963 10.5327 141.289 10.7223 140.697 11.1016C140.105 11.4766 139.636 12.0305 139.291 12.7635C138.95 13.4922 138.779 14.3892 138.779 15.4545C138.779 16.5199 138.95 17.419 139.291 18.152C139.636 18.8807 140.105 19.4347 140.697 19.8139C141.289 20.1889 141.963 20.3764 142.717 20.3764C143.467 20.3764 144.138 20.1889 144.73 19.8139C145.327 19.4347 145.796 18.8807 146.137 18.152C146.482 17.419 146.654 16.5199 146.654 15.4545ZM158.213 12.348C158.145 11.7429 157.863 11.2741 157.369 10.9418C156.875 10.6051 156.253 10.4368 155.503 10.4368C154.966 10.4368 154.501 10.522 154.109 10.6925C153.717 10.8587 153.412 11.0888 153.195 11.3828C152.982 11.6726 152.876 12.0028 152.876 12.3736C152.876 12.6847 152.948 12.9531 153.093 13.179C153.242 13.4048 153.436 13.5945 153.675 13.7479C153.917 13.897 154.177 14.0227 154.454 14.125C154.731 14.223 154.998 14.304 155.253 14.3679L156.532 14.7003C156.949 14.8026 157.378 14.9411 157.817 15.1158C158.256 15.2905 158.662 15.5206 159.037 15.8061C159.412 16.0916 159.715 16.4453 159.945 16.8672C160.18 17.2891 160.297 17.794 160.297 18.3821C160.297 19.1236 160.105 19.782 159.721 20.3572C159.342 20.9325 158.79 21.3864 158.066 21.7188C157.346 22.0511 156.474 22.2173 155.452 22.2173C154.471 22.2173 153.623 22.0618 152.907 21.7507C152.192 21.4396 151.631 20.9986 151.226 20.4276C150.822 19.8523 150.598 19.1705 150.555 18.3821H152.537C152.575 18.8551 152.729 19.2493 152.997 19.5646C153.27 19.8757 153.617 20.108 154.039 20.2614C154.465 20.4105 154.932 20.4851 155.439 20.4851C155.997 20.4851 156.493 20.3977 156.928 20.223C157.367 20.044 157.712 19.7969 157.964 19.4815C158.215 19.1619 158.341 18.7891 158.341 18.3629C158.341 17.9751 158.23 17.6577 158.008 17.4105C157.791 17.1634 157.495 16.9588 157.12 16.7969C156.749 16.6349 156.329 16.4922 155.861 16.3686L154.314 15.9467C153.265 15.6612 152.434 15.2415 151.821 14.6875C151.211 14.1335 150.907 13.4006 150.907 12.4886C150.907 11.7344 151.111 11.076 151.52 10.5135C151.93 9.95099 152.483 9.5142 153.182 9.20312C153.881 8.88778 154.67 8.73011 155.547 8.73011C156.434 8.73011 157.216 8.88565 157.893 9.19673C158.575 9.50781 159.112 9.93608 159.504 10.4815C159.896 11.0227 160.101 11.6449 160.118 12.348H158.213Z" fill="#0E0E0E"/>
</svg>
